<svg version="1.1" id="Layer_1" xmlns="http://www.w3.org/2000/svg" xmlns:xlink="http://www.w3.org/1999/xlink" x="0px" y="0px"
	 width="100%" viewBox="0 0 600 600" enable-background="new 0 0 600 600" xml:space="preserve">
<path fill="#FEFEFE" opacity="1.000000" stroke="none" 
	d="
M601.000000,228.000000 
	C601.000000,352.666656 601.000000,476.833344 601.000000,601.000000 
	C401.000000,601.000000 201.000000,601.000000 1.000000,601.000000 
	C1.000000,401.000000 1.000000,201.000000 1.000000,1.000000 
	C201.000000,1.000000 401.000000,1.000000 601.000000,1.000000 
	C601.000000,76.500000 601.000000,152.000000 601.000000,228.000000 
M307.623718,210.876953 
	C297.896149,255.756943 304.636047,299.524506 316.064972,343.173401 
	C321.615204,340.826904 324.577545,337.382965 324.219391,331.526855 
	C323.265442,315.926971 322.889771,300.273621 321.339325,284.735840 
	C320.540436,276.730011 317.728485,268.925079 315.826141,261.029358 
	C323.118164,270.704071 325.599030,282.293182 327.706879,293.817627 
	C329.865692,305.620453 330.974304,317.615356 332.562592,329.678070 
	C333.673706,328.489624 334.799774,327.050171 336.155945,325.876587 
	C341.212799,321.500610 342.572052,316.162811 340.840576,309.786011 
	C336.966797,295.519867 333.365906,281.176910 329.286713,266.970673 
	C327.820831,261.865753 325.301147,257.063385 323.262390,252.122955 
	C323.724487,251.936218 324.186584,251.749481 324.648682,251.562744 
	C336.337982,269.727051 342.997192,289.982758 348.381348,311.161224 
	C350.624573,307.153137 357.232483,305.586395 355.211243,299.657349 
	C351.086029,287.556641 346.349243,275.664093 341.846619,263.692474 
	C338.694427,255.311417 334.599243,247.148712 332.636993,238.500107 
	C331.102600,231.736984 331.581482,224.308121 332.368011,217.310181 
	C332.800873,213.458755 335.716003,209.886292 337.511993,206.188049 
	C337.997925,206.384399 338.483856,206.580734 338.969788,206.777084 
	C340.013885,210.968307 341.277893,215.119766 342.044617,219.361145 
	C342.938843,224.308105 346.017670,226.264832 350.619324,226.930038 
	C356.352692,227.758865 362.080139,228.687302 367.757050,229.835190 
	C377.197754,231.744141 381.421112,230.196335 384.931335,222.270477 
	C391.741913,221.900345 399.075745,221.501846 406.409546,221.103180 
	C406.742035,221.085114 407.130554,221.172348 407.398376,221.031158 
	C410.487122,219.402420 414.436859,218.987564 414.860077,214.134476 
	C416.481445,195.542786 416.563477,195.549896 404.431702,181.354416 
	C403.998657,180.847733 403.661377,180.146378 403.111633,179.872330 
	C401.042084,178.840561 398.900452,177.133057 396.790375,177.139648 
	C385.462982,177.174988 374.135132,177.599197 362.811859,178.010574 
	C360.137970,178.107712 358.354706,177.675873 357.926636,174.562149 
	C356.624573,165.091202 350.414917,160.776810 341.627472,158.739716 
	C337.319519,157.741043 333.119415,155.897659 329.209625,153.803406 
	C328.104919,153.211685 327.226471,149.827789 327.891022,148.668655 
	C334.677002,136.832626 342.045868,125.328674 348.753052,113.450294 
	C353.632507,104.808846 360.567230,98.686043 369.236023,94.322571 
	C373.693481,92.078903 378.178497,89.763306 382.881958,88.155708 
	C412.023041,78.195549 441.227386,68.420349 470.422363,58.618401 
	C471.706146,58.187366 473.103394,58.094227 474.447784,57.843697 
	C474.562958,58.237942 474.678131,58.632187 474.793335,59.026432 
	C467.089935,61.998184 459.466187,65.200287 451.667755,67.897232 
	C430.740631,75.134514 409.674622,81.973465 388.786469,89.319412 
	C371.628052,95.353706 357.313385,104.902725 349.035309,122.082550 
	C344.857483,130.752975 339.438080,138.822632 334.638580,147.197464 
	C333.017792,150.025604 333.463776,151.987915 336.851501,153.402939 
	C342.676025,155.835815 348.524750,158.349258 353.987457,161.483871 
	C369.966644,170.653015 386.671051,165.395813 401.601410,151.659943 
	C401.725372,151.545868 401.530975,151.085739 401.433228,150.447617 
	C387.244476,152.097870 373.737579,150.005646 362.225769,143.285767 
	C374.155884,144.327606 386.989899,146.563141 399.768250,146.280563 
	C415.542938,145.931686 432.206665,138.217087 434.357513,133.311310 
	C423.636993,133.908356 412.397247,135.224442 401.193909,134.965561 
	C389.826233,134.702896 379.422180,130.518524 370.460541,123.191734 
	C372.689972,123.140640 374.819000,123.402466 376.861664,123.973396 
	C389.784790,127.585472 402.896118,129.707443 416.354126,128.917694 
	C427.641815,128.255295 438.483673,125.853355 448.122162,119.614471 
	C450.437958,118.115471 452.336029,115.971130 454.226349,114.300240 
	C442.530670,115.841217 431.275238,118.174133 419.950806,118.579941 
	C408.361633,118.995239 396.862335,116.899498 386.657898,110.537125 
	C392.149628,110.614647 397.564667,111.168526 402.993561,111.481529 
	C420.549408,112.493706 437.843903,111.850258 454.858032,106.252319 
	C464.768890,102.991478 468.717468,94.514130 474.513428,87.506058 
	C474.897156,87.042068 475.133606,86.193085 475.009430,85.615410 
	C474.273041,82.190048 476.537842,81.219757 478.999908,79.835472 
	C484.004974,77.021362 488.716217,73.814087 488.104797,66.811508 
	C488.021088,65.852730 489.840302,64.780800 490.670044,63.679520 
	C493.290619,60.201210 497.541016,56.889679 498.001129,53.127216 
	C498.516815,48.910381 500.018402,45.681339 501.901001,42.272339 
	C503.022186,40.242126 504.370422,38.271088 505.064178,36.097160 
	C505.449341,34.890163 505.156860,32.839169 504.329437,32.052586 
	C503.530029,31.292643 501.434326,31.159857 500.292542,31.649023 
	C497.876495,32.684071 495.480469,34.032486 493.481445,35.729656 
	C482.920380,44.695961 470.912476,51.192734 457.998260,55.823967 
	C440.135468,62.229828 421.993134,67.852356 404.082092,74.128723 
	C389.802673,79.132484 375.561188,84.295959 361.554016,90.004738 
	C353.668274,93.218651 347.969360,99.204224 343.892761,106.954842 
	C339.013947,116.230705 333.520996,125.195778 328.009552,134.119766 
	C326.203796,137.043564 323.751434,139.692917 321.161926,141.977097 
	C317.691895,145.037994 315.704254,144.060394 315.115540,139.330978 
	C314.828003,137.021011 314.754181,134.684448 314.583618,132.359940 
	C314.020874,132.373688 313.458160,132.387436 312.895416,132.401184 
	C312.683044,134.727768 312.313354,137.052414 312.284607,139.381256 
	C312.133057,151.671051 308.834656,162.126709 295.891235,166.870392 
	C295.732025,166.700562 295.572845,166.530731 295.851410,165.872879 
	C305.134033,158.172928 307.809052,151.242126 305.538635,140.912613 
	C303.552155,142.056931 301.536652,143.217972 299.608673,144.328598 
	C300.274109,139.545578 301.506500,135.185471 301.297699,130.895523 
	C301.097748,126.787140 301.207520,123.352119 304.617981,120.589966 
	C307.329407,118.393974 306.119110,115.877586 303.779724,115.141373 
	C300.960815,114.254242 297.699463,114.522758 294.655853,114.712196 
	C293.266846,114.798653 291.990173,116.230446 290.572296,116.439209 
	C289.116974,116.653481 287.551514,116.119820 286.034302,115.913498 
	C286.633301,114.373703 286.805878,112.260353 287.928894,111.425461 
	C289.715027,110.097618 292.071106,109.200287 294.298462,108.863213 
	C301.951813,107.704994 307.485779,111.104111 311.511017,117.991264 
	C315.868256,115.243774 317.217651,118.489746 318.696472,122.784325 
	C319.761932,115.220665 320.664490,108.813332 321.705780,101.421196 
	C318.459991,103.987022 316.293549,105.699615 314.127106,107.412201 
	C317.149780,99.930344 317.141632,99.940086 311.155609,94.932777 
	C310.395233,94.296730 309.774323,93.494156 309.087036,92.770432 
	C301.149017,84.411446 283.085876,87.204895 277.998810,97.555855 
	C277.352112,98.871765 276.658173,100.214264 275.732391,101.334824 
	C271.210297,106.808250 270.858215,113.442604 274.858459,119.275810 
	C275.784637,120.626389 277.035461,121.935081 277.420746,123.445702 
	C279.485992,131.543427 283.049561,138.618378 289.354858,144.375610 
	C292.882416,147.596558 292.324982,151.635864 288.039551,153.816467 
	C284.736694,155.497101 280.861145,156.620560 277.165741,156.864944 
	C259.535370,158.030899 245.005920,163.908676 237.380615,181.271515 
	C236.716721,182.783234 235.886353,184.322388 234.778900,185.521469 
	C229.865845,190.840958 225.554642,197.175354 219.637680,200.989151 
	C212.676132,205.476257 206.298889,210.182800 200.958176,216.484604 
	C194.743057,223.818146 189.503113,231.851486 177.303329,230.761063 
	C170.899963,230.188721 164.104858,233.999054 157.453674,235.839355 
	C160.315475,240.343384 165.422379,238.514175 170.048737,239.135574 
	C166.498016,245.624039 163.949860,252.455353 156.065933,254.750900 
	C155.090714,255.034851 153.816330,257.132629 154.056274,258.016449 
	C154.344254,259.077209 155.996918,260.067535 157.258957,260.490051 
	C158.952530,261.057068 160.909119,260.813995 162.629135,261.330475 
	C171.908142,264.116852 180.135742,261.637634 186.059464,253.971008 
	C187.682602,251.870331 189.155655,249.615311 190.414200,247.278488 
	C194.326569,240.014175 200.598129,235.981995 207.911087,232.442139 
	C220.452469,226.371460 232.513046,219.297607 244.674683,212.465515 
	C246.077515,211.677460 247.434021,209.886948 247.798065,208.324921 
	C249.627045,200.477310 254.047974,194.395691 260.117065,189.419540 
	C270.389313,180.997162 282.546509,176.511002 295.161469,173.077301 
	C296.198181,172.795120 297.378326,173.040024 298.491852,173.040024 
	C294.046539,175.455139 289.379822,177.050995 284.857178,178.984009 
	C273.368439,183.894409 262.837433,190.231949 255.730667,200.895859 
	C249.935699,209.591385 250.862854,216.596344 258.788727,223.392746 
	C262.112457,226.242813 262.912537,229.057495 261.377228,232.996674 
	C257.810822,242.147156 254.500519,251.398834 250.848267,260.514069 
	C248.350433,266.748108 248.085541,272.751984 251.175186,278.835602 
	C253.969131,284.337006 253.394028,289.805481 250.608627,295.133881 
	C249.220535,297.789276 247.609512,300.333008 246.319748,303.032562 
	C245.817764,304.083191 245.327103,305.880127 245.847046,306.557831 
	C249.202240,310.931335 252.838531,315.089203 257.397461,320.528687 
	C261.114136,286.342712 269.516541,255.052383 280.537842,224.395111 
	C281.010681,225.475327 280.985016,226.459457 280.736786,227.383789 
	C272.311829,258.754944 268.586243,290.793945 267.107422,323.151703 
	C266.776581,330.391296 269.822144,334.729614 277.199249,337.360962 
	C277.341797,293.912933 280.046722,250.883423 294.712616,209.483078 
	C294.918610,211.888336 294.777374,214.267166 294.471222,216.624603 
	C291.984344,235.775955 287.965607,254.874893 287.346405,274.084351 
	C286.608459,296.976440 288.902069,319.958466 289.586914,342.910370 
	C289.731171,347.745178 291.184998,351.066925 295.462585,353.378998 
	C297.631500,354.551331 299.085724,356.388519 302.021545,354.334808 
	C304.684479,352.471954 305.001343,350.706024 304.662170,347.714325 
	C302.188049,325.888794 299.153229,304.083496 297.857483,282.179382 
	C296.414551,257.787445 299.410156,233.619095 306.847809,209.998535 
	C307.141815,210.002396 307.435791,210.006241 307.623718,210.876953 
M225.152435,124.621178 
	C205.771118,136.338531 185.087997,135.643417 163.798340,130.999039 
	C174.190506,139.568665 186.077393,143.846725 199.202927,144.918472 
	C212.284698,145.986664 224.991516,143.469666 237.876083,140.988464 
	C230.952682,144.722778 223.916428,148.211548 216.471466,149.950790 
	C209.046310,151.685379 201.211487,151.666321 193.417313,152.429733 
	C193.866226,152.951996 194.331924,153.605545 194.905289,154.144562 
	C209.558395,167.919449 225.548126,170.330368 243.566635,161.495255 
	C245.360947,160.615448 247.158005,159.740524 248.937943,158.832291 
	C252.699661,156.912827 258.679443,155.717422 259.637146,152.851044 
	C260.810120,149.340256 258.050629,144.322495 256.516052,140.130280 
	C242.821625,102.719345 239.663376,98.733704 202.300247,84.876434 
	C181.082047,77.007011 159.458603,70.232918 138.047165,62.879593 
	C133.709442,61.389885 129.504242,59.514286 125.237946,57.816593 
	C125.367279,57.395020 125.496620,56.973442 125.625961,56.551865 
	C128.076508,57.168427 130.576035,57.636269 132.970032,58.424557 
	C156.844543,66.285904 180.724304,74.132660 204.548981,82.142960 
	C211.168579,84.368584 217.664520,86.992119 224.122162,89.662857 
	C236.674484,94.854240 246.565414,102.896965 252.983490,115.277702 
	C258.262970,125.462051 264.612579,135.087006 270.261993,145.087509 
	C271.657593,147.557999 272.175598,150.524261 273.097046,153.262619 
	C273.688721,154.292114 275.744385,154.737305 277.136475,153.973389 
	C279.566589,152.639816 282.520172,150.940567 283.446198,148.660263 
	C284.040588,147.196655 281.688416,144.180893 280.143402,142.277924 
	C276.917480,138.304520 272.782593,134.973312 270.045349,130.719269 
	C264.645142,122.326622 259.723267,113.602173 255.022339,104.791504 
	C251.511047,98.210464 246.731766,92.977097 240.130493,89.813515 
	C231.892227,85.865417 223.516739,82.065475 214.896698,79.078163 
	C189.101654,70.138786 163.115494,61.752087 137.292587,52.891335 
	C125.588135,48.875122 114.493759,43.547806 104.985748,35.337776 
	C103.262215,33.849541 101.097389,32.710167 98.949768,31.911020 
	C95.176750,30.507061 92.769394,32.572304 94.072411,36.360382 
	C95.067924,39.254482 97.316086,41.699730 98.843262,44.436039 
	C99.683884,45.942207 100.910667,47.736313 100.706329,49.228458 
	C100.076759,53.825733 102.161865,57.057152 105.333809,59.671909 
	C108.487411,62.271545 111.536118,64.238754 111.521713,69.342911 
	C111.514946,71.740158 114.910110,74.412819 117.204460,76.468674 
	C119.123108,78.187889 121.683319,79.191124 124.103470,80.594971 
	C122.803406,86.212090 127.832115,88.628044 129.752487,92.573997 
	C133.399292,100.067390 139.651184,102.937515 146.711960,105.322319 
	C164.844086,111.446503 183.479630,110.638535 202.148315,109.434631 
	C203.810638,109.327431 205.465530,109.092468 207.128494,109.011612 
	C208.625793,108.938812 210.129425,108.996254 211.630264,108.996254 
	C189.814072,119.794266 167.587677,118.956398 144.954559,112.121078 
	C155.981842,123.791336 170.156754,126.719849 185.153275,127.389977 
	C200.137543,128.059555 214.572678,124.658669 229.231766,121.536377 
	C228.083176,122.422195 226.934570,123.308014 225.152435,124.621178 
M216.599960,271.807465 
	C212.774353,261.926697 208.948761,252.045914 205.111053,242.170029 
	C199.745895,244.190369 197.751434,247.226837 199.188705,251.746414 
	C215.628952,303.443024 247.798370,342.501862 294.258911,370.120239 
	C297.701080,372.166412 300.658783,372.392761 303.860138,370.027222 
	C316.557922,360.644501 330.263824,352.355408 341.782593,341.700470 
	C371.977234,313.770142 395.566833,281.264282 405.607971,240.437744 
	C406.552094,236.599091 407.429626,232.744064 408.443298,228.450974 
	C405.025940,228.450974 402.271240,228.450974 399.393066,228.450974 
	C398.977966,229.796631 398.532013,231.039917 398.210205,232.314545 
	C384.223602,287.715607 350.663605,328.575348 303.835724,359.664124 
	C300.211212,362.070404 297.545654,361.808167 294.005554,359.550079 
	C260.000397,337.859619 233.756805,309.356201 216.599960,271.807465 
M67.991135,453.609192 
	C67.991135,469.354279 67.991135,485.099335 67.991135,500.971985 
	C77.290833,500.971985 85.943649,501.252136 94.570625,500.899780 
	C104.939987,500.476257 111.273697,493.215088 108.694794,484.272675 
	C107.601395,480.481293 104.208725,477.352997 101.723282,473.722015 
	C101.446915,473.956512 102.103615,473.460510 102.690048,472.892029 
	C107.022202,468.692383 108.301796,462.820953 105.938843,457.323303 
	C103.645386,451.987366 99.561394,449.606140 93.691925,449.763245 
	C86.205315,449.963562 78.708580,449.866547 71.217705,449.774872 
	C69.093651,449.748932 67.539650,449.941254 67.991135,453.609192 
M321.943848,78.376595 
	C332.221649,79.339806 342.640289,79.568848 352.731659,81.504112 
	C360.469604,82.988045 366.690308,80.861526 374.399078,76.879356 
	C325.556458,65.820084 278.056763,66.868935 230.325928,77.448799 
	C235.867599,79.734840 241.863586,83.059784 247.282150,82.294800 
	C271.786163,78.835373 296.299561,77.174019 321.943848,78.376595 
M313.061798,491.874237 
	C309.477051,490.305786 305.892303,488.737335 302.088165,487.072876 
	C300.754211,489.710785 299.433014,492.323364 297.990601,495.175720 
	C307.428070,501.206573 317.173035,503.482544 327.756775,500.693237 
	C334.722351,498.857452 338.490234,493.866058 338.721130,486.961700 
	C338.936890,480.510620 335.846405,475.931244 329.068237,473.398926 
	C324.720093,471.774414 320.173187,470.689362 315.749512,469.256989 
	C312.734558,468.280792 310.089691,466.763580 310.708069,462.947144 
	C311.308105,459.243805 314.365387,457.886841 317.368896,458.280365 
	C322.519562,458.955231 327.553925,460.517609 333.256165,461.852264 
	C333.989899,460.444031 335.266571,457.993835 336.729309,455.186554 
	C328.193817,449.776245 319.531494,447.706177 309.993530,451.012421 
	C308.905792,451.389526 307.851318,451.944733 306.884766,452.575623 
	C301.623871,456.009491 299.583130,461.010437 300.052338,467.126678 
	C300.476074,472.649841 303.987854,475.813232 308.779175,477.603271 
	C313.442322,479.345428 318.459503,480.252380 322.923004,482.366730 
	C325.016998,483.358612 326.175018,486.326416 327.757233,488.398712 
	C325.593475,489.865967 323.602203,491.966888 321.215912,492.616333 
	C318.979462,493.225006 316.324829,492.297302 313.061798,491.874237 
M497.016144,489.479492 
	C497.016144,493.238220 497.016144,496.996979 497.016144,500.701752 
	C509.400543,500.701752 521.117615,500.701752 532.736267,500.701752 
	C532.736267,497.780396 532.736267,495.194244 532.736267,492.075562 
	C524.094360,492.075562 515.715149,492.075562 507.433289,492.075562 
	C507.433289,487.467468 507.433289,483.410370 507.433289,478.818481 
	C514.820862,478.818481 521.872375,478.818481 528.773926,478.818481 
	C528.773926,475.996307 528.773926,473.722260 528.773926,470.911011 
	C521.487671,470.911011 514.433594,470.911011 507.463806,470.911011 
	C507.463806,466.482422 507.463806,462.611389 507.463806,458.300842 
	C515.915405,458.300842 523.994385,458.300842 532.111816,458.300842 
	C532.111816,455.260742 532.111816,452.673401 532.111816,450.199036 
	C520.289856,450.199036 508.749390,450.199036 497.016144,450.199036 
	C497.016144,463.223450 497.016144,475.855072 497.016144,489.479492 
M433.613647,501.030060 
	C435.554535,501.030060 437.495392,501.030060 439.997253,501.030060 
	C433.620148,484.283936 427.533478,468.120697 421.199432,452.054993 
	C420.757385,450.933746 418.474792,449.929626 417.060028,449.945404 
	C415.022766,449.968079 411.655945,450.436157 411.168213,451.646088 
	C404.651215,467.812622 398.537506,484.141724 392.293884,500.508026 
	C402.225220,501.988464 402.730103,502.126160 404.897552,494.178955 
	C406.427460,488.569397 409.676208,488.165527 414.373779,488.278778 
	C424.532837,488.523651 424.593933,488.332123 428.194092,497.716583 
	C429.057861,499.968201 430.031708,501.568085 433.613647,501.030060 
M128.107193,472.515045 
	C124.604065,481.806946 121.100929,491.098846 117.566177,500.474609 
	C127.338806,501.996582 127.608292,502.082550 130.321732,493.576019 
	C131.685837,489.299652 133.898911,488.471527 138.142288,488.152802 
	C146.303955,487.539734 152.397369,488.731293 153.757645,498.245422 
	C153.906021,499.283264 155.480057,500.742828 156.554092,500.899200 
	C159.201553,501.284607 161.942856,501.025421 165.129364,501.025421 
	C158.750900,484.226471 152.607437,468.273895 146.674667,452.243317 
	C145.375076,448.731781 142.746857,450.080597 140.498581,449.811951 
	C138.171814,449.533905 136.540787,449.946686 135.616074,452.688141 
	C133.441437,459.135101 130.827057,465.433716 128.107193,472.515045 
M169.426712,561.107361 
	C171.206970,563.309814 173.186722,565.383057 174.718399,567.746643 
	C176.756454,570.891602 179.310486,571.628418 182.765915,570.428528 
	C182.765915,556.376831 182.765915,542.448914 182.765915,528.427368 
	C180.488113,528.427368 178.471100,528.427368 175.871460,528.427368 
	C175.871460,538.115845 175.871460,547.435486 175.871460,557.722656 
	C168.118118,547.954163 160.999771,539.152161 154.093338,530.186890 
	C151.909241,527.351624 149.615494,526.632690 146.546677,527.983459 
	C146.546677,542.324890 146.546677,556.421387 146.546677,570.681641 
	C148.752426,570.681641 150.670593,570.681641 153.115860,570.681641 
	C153.115860,561.114258 153.115860,551.752563 153.115860,540.953064 
	C159.011902,548.242371 163.993988,554.401794 169.426712,561.107361 
M344.299683,565.173218 
	C342.080750,561.542908 339.861847,557.912537 337.620697,554.245850 
	C339.066833,553.201660 340.246063,552.548157 341.180023,551.641907 
	C345.411102,547.536133 346.650970,542.509888 344.787933,537.011597 
	C343.008850,531.761169 339.371704,528.032593 333.590240,527.713867 
	C327.162018,527.359619 320.699280,527.632751 314.025299,527.632751 
	C314.025299,541.835510 314.025299,555.749451 314.025299,569.881958 
	C316.070190,569.881958 318.015198,569.881958 320.640442,569.881958 
	C320.640442,565.063538 320.640442,560.362061 320.640442,556.009521 
	C327.492554,554.099182 332.001160,555.845825 334.379608,562.079529 
	C334.786560,563.146118 335.751678,563.996033 336.180786,565.058350 
	C338.152039,569.938782 341.752289,571.084045 346.831482,569.675354 
	C346.107025,568.340149 345.413696,567.062195 344.299683,565.173218 
M364.161438,487.488617 
	C364.161438,491.918884 364.161438,496.349152 364.161438,500.672180 
	C367.919098,500.672180 370.989166,500.672180 374.387512,500.672180 
	C374.387512,486.547882 374.387512,472.774261 374.387512,458.499939 
	C379.970581,458.499939 385.226135,458.499939 390.667725,458.499939 
	C390.667725,455.420837 390.667725,452.852417 390.667725,450.229462 
	C376.415802,450.229462 362.411682,450.229462 348.469238,450.229462 
	C348.469238,453.094757 348.469238,455.534241 348.469238,458.539581 
	C353.740234,458.539581 358.798401,458.539581 364.161438,458.539581 
	C364.161438,468.235168 364.161438,477.364075 364.161438,487.488617 
M457.887268,473.504272 
	C457.887268,482.592804 457.887268,491.681335 457.887268,500.654327 
	C461.612335,500.654327 464.667511,500.654327 468.213562,500.654327 
	C468.213562,486.414703 468.213562,472.539856 468.213562,458.300110 
	C473.670135,458.300110 478.622406,458.300110 483.610138,458.300110 
	C483.610138,455.335541 483.610138,452.756287 483.610138,450.093079 
	C469.429077,450.093079 455.533813,450.093079 441.528870,450.093079 
	C441.528870,452.940887 441.528870,455.494873 441.528870,458.578430 
	C447.044312,458.578430 452.283112,458.578430 457.887268,458.578430 
	C457.887268,463.572296 457.887268,468.039703 457.887268,473.504272 
M293.897400,551.560730 
	C298.565491,551.325378 296.204895,548.446228 296.226501,545.961548 
	C289.759888,545.961548 283.648163,545.961548 277.445190,545.961548 
	C277.445190,541.810120 277.445190,538.025330 277.445190,533.713989 
	C284.658417,533.713989 291.722565,533.713989 298.784454,533.713989 
	C298.784454,531.300720 298.784454,529.441772 298.784454,527.745361 
	C289.275208,527.745361 280.174896,527.745361 270.855957,527.745361 
	C270.855957,542.213379 270.855957,556.437683 270.855957,570.560547 
	C280.666199,570.560547 290.213440,570.560547 299.985931,570.560547 
	C299.874176,568.440918 299.782837,566.708923 299.665100,564.476196 
	C292.013550,564.476196 284.785126,564.476196 277.478729,564.476196 
	C277.478729,560.013977 277.478729,556.083801 277.478729,551.560181 
	C282.786285,551.560181 287.897003,551.560181 293.897400,551.560730 
M182.552307,449.777344 
	C181.135681,449.877747 179.719055,449.978180 178.504059,450.064301 
	C178.504059,467.285461 178.504059,484.035645 178.504059,500.903992 
	C190.486115,500.903992 202.119354,500.903992 213.920227,500.903992 
	C213.920227,497.992981 213.920227,495.229950 213.920227,492.011475 
	C205.063065,492.011475 196.480011,492.011475 187.595184,492.011475 
	C187.595184,477.785919 187.595184,464.014832 187.595184,450.012054 
	C185.990768,449.922546 184.690384,449.849976 182.552307,449.777344 
M254.430939,501.031128 
	C256.865875,501.031128 259.300812,501.031128 261.772064,501.031128 
	C261.772064,497.856262 261.772064,495.279480 261.772064,492.140442 
	C253.149780,492.140442 244.780319,492.140442 235.931366,492.140442 
	C235.931366,477.714783 235.931366,463.847961 235.931366,450.174652 
	C232.365860,450.174652 229.305603,450.174652 226.324219,450.174652 
	C226.324219,467.256500 226.324219,483.961517 226.324219,501.031128 
	C235.561401,501.031128 244.505524,501.031128 254.430939,501.031128 
M372.745697,533.458313 
	C377.168030,534.408020 381.590363,535.357727 386.500824,536.412292 
	C387.093719,535.382141 388.029419,533.756226 389.011871,532.049133 
	C382.888031,527.907715 376.843994,526.194946 370.082520,527.646606 
	C363.267151,529.109985 359.269745,533.258484 358.891876,539.241272 
	C358.498627,545.467224 361.111969,548.606689 368.688446,551.062683 
	C372.631958,552.341125 376.708649,553.351685 380.423462,555.117798 
	C381.792603,555.768799 383.122375,558.331787 382.958740,559.860962 
	C382.796326,561.378845 380.969971,563.444153 379.448517,563.924805 
	C377.026398,564.690063 374.117645,564.910278 371.657043,564.331177 
	C367.717499,563.404175 363.976288,561.634338 359.811646,560.095215 
	C359.027832,561.592529 358.140594,563.287354 357.143127,565.192749 
	C365.266602,570.681030 373.556763,572.644775 382.587311,569.799805 
	C387.833282,568.147095 390.548401,564.209473 390.736938,559.005371 
	C390.925507,553.800659 388.482025,550.137024 382.940948,548.103516 
	C379.204987,546.732483 375.096741,546.262268 371.527313,544.593079 
	C369.319794,543.560730 366.694977,541.272400 366.239319,539.127014 
	C365.484344,535.572632 368.616669,534.093750 372.745697,533.458313 
M126.545235,564.966614 
	C134.621613,553.285950 129.822800,540.255737 131.287064,527.796875 
	C128.335434,527.796875 126.243408,527.796875 123.864876,527.796875 
	C123.864876,533.899353 124.031578,539.719604 123.807053,545.524597 
	C123.654030,549.481018 123.430359,553.548767 122.379158,557.327759 
	C121.035240,562.158997 117.231781,564.588501 112.186661,564.585388 
	C107.125923,564.582275 103.494347,562.093201 102.065895,557.253235 
	C101.186432,554.273376 100.885971,551.050476 100.799362,547.923645 
	C100.616142,541.309021 100.743553,534.685730 100.743553,527.841797 
	C98.253159,527.841797 96.202164,527.841797 94.037796,527.841797 
	C94.037796,536.167969 93.726265,544.170227 94.126755,552.136597 
	C94.515358,559.866455 97.367317,566.646912 105.262077,569.562195 
	C112.834236,572.358459 120.016609,571.445679 126.545235,564.966614 
M231.869659,544.523315 
	C230.330032,540.485657 228.407455,536.545532 227.347107,532.385742 
	C226.003525,527.114807 222.954926,526.647705 218.293625,528.087219 
	C223.629807,541.432312 228.790222,554.545837 234.194901,567.557861 
	C234.786591,568.982422 236.844269,570.776123 238.111664,570.694092 
	C239.694046,570.591675 241.934662,569.046692 242.557251,567.564270 
	C247.575714,555.615051 252.287689,543.536865 257.069000,531.488464 
	C257.525574,530.338013 257.816467,529.121826 258.174316,527.968323 
	C253.083420,526.451721 250.671646,528.126160 249.119263,532.887146 
	C246.033951,542.349609 242.268784,551.590332 238.426498,561.881592 
	C236.093277,555.758606 234.094559,550.513428 231.869659,544.523315 
M193.396881,174.624374 
	C194.372406,166.222824 192.272827,159.117828 184.321243,153.953003 
	C183.971069,175.947327 184.089981,197.556351 189.042770,219.371887 
	C193.928482,214.923111 197.209732,211.115463 195.776535,203.848892 
	C193.958878,194.633102 194.104660,185.030060 193.396881,174.624374 
M484.634064,570.937317 
	C486.072968,570.867065 487.511902,570.796814 489.172028,570.715759 
	C489.172028,568.403870 489.357483,566.396790 489.137726,564.435059 
	C488.441040,558.216370 490.128754,552.805908 493.519135,547.541931 
	C497.521729,541.327454 500.888977,534.703796 504.668823,528.014832 
	C500.055359,526.827087 497.056946,527.273010 495.034515,531.807983 
	C492.493988,537.504456 489.170380,542.851746 485.816040,549.028625 
	C482.515564,542.880310 479.334412,537.653320 476.852509,532.113098 
	C474.811310,527.556580 471.880341,526.580750 467.105438,528.075317 
	C470.476990,534.062195 473.409729,540.010010 477.030212,545.504700 
	C481.221649,551.866089 483.282745,558.516724 482.499878,566.135071 
	C482.342346,567.667847 483.311371,569.316406 484.634064,570.937317 
M441.401855,570.948303 
	C442.522125,570.003418 444.455933,569.173340 444.608398,568.091980 
	C445.046143,564.987549 444.762970,561.781372 444.763000,558.615234 
	C444.763031,550.355957 444.763000,542.096741 444.763000,533.487244 
	C449.748169,533.487244 454.025757,533.487244 458.453003,533.487244 
	C458.453003,531.382080 458.453003,529.648987 458.453003,527.842407 
	C446.607513,527.842407 435.054657,527.842407 423.172516,527.842407 
	C423.291138,529.961365 423.387665,531.685730 423.512207,533.910034 
	C428.564148,533.910034 433.128906,533.910034 437.919800,533.910034 
	C437.919800,545.256165 437.891174,556.067200 437.948456,566.877869 
	C437.957794,568.641785 437.009644,571.248169 441.401855,570.948303 
M410.905579,539.520752 
	C410.905579,535.605530 410.905579,531.690308 410.905579,527.775146 
	C408.240387,527.775146 406.309631,527.775146 404.354492,527.775146 
	C404.354492,542.293823 404.354492,556.520203 404.354492,570.670349 
	C406.633484,570.670349 408.563599,570.670349 410.905579,570.670349 
	C410.905579,560.441406 410.905579,550.478088 410.905579,539.520752 
M199.531128,558.493408 
	C199.531128,562.565430 199.531128,566.637451 199.531128,570.545288 
	C202.219269,570.545288 204.111649,570.545288 205.906342,570.545288 
	C205.906342,556.085144 205.906342,541.991150 205.906342,527.848145 
	C203.736069,527.848145 201.841919,527.848145 199.531097,527.848145 
	C199.531097,537.926392 199.531097,547.710327 199.531128,558.493408 
M413.827118,155.238174 
	C413.528503,154.578766 413.229889,153.919357 412.931274,153.259949 
	C410.267731,155.140015 406.438965,156.440903 405.162018,159.010132 
	C401.520996,166.335678 405.461395,176.110611 413.821442,180.995285 
	C413.821442,172.339050 413.821442,164.218414 413.827118,155.238174 
z"/>
<path fill="#BB2537" opacity="1.000000" stroke="none" 
	d="
M296.358765,167.389114 
	C308.834656,162.126709 312.133057,151.671051 312.284607,139.381256 
	C312.313354,137.052414 312.683044,134.727768 312.895416,132.401184 
	C313.458160,132.387436 314.020874,132.373688 314.583618,132.359940 
	C314.754181,134.684448 314.828003,137.021011 315.115540,139.330978 
	C315.704254,144.060394 317.691895,145.037994 321.161926,141.977097 
	C323.751434,139.692917 326.203796,137.043564 328.009552,134.119766 
	C333.520996,125.195778 339.013947,116.230705 343.892761,106.954842 
	C347.969360,99.204224 353.668274,93.218651 361.554016,90.004738 
	C375.561188,84.295959 389.802673,79.132484 404.082092,74.128723 
	C421.993134,67.852356 440.135468,62.229828 457.998260,55.823967 
	C470.912476,51.192734 482.920380,44.695961 493.481445,35.729656 
	C495.480469,34.032486 497.876495,32.684071 500.292542,31.649023 
	C501.434326,31.159857 503.530029,31.292643 504.329437,32.052586 
	C505.156860,32.839169 505.449341,34.890163 505.064178,36.097160 
	C504.370422,38.271088 503.022186,40.242126 501.901001,42.272339 
	C500.018402,45.681339 498.516815,48.910381 498.001129,53.127216 
	C497.541016,56.889679 493.290619,60.201210 490.670044,63.679520 
	C489.840302,64.780800 488.021088,65.852730 488.104797,66.811508 
	C488.716217,73.814087 484.004974,77.021362 478.999908,79.835472 
	C476.537842,81.219757 474.273041,82.190048 475.009430,85.615410 
	C475.133606,86.193085 474.897156,87.042068 474.513428,87.506058 
	C468.717468,94.514130 464.768890,102.991478 454.858032,106.252319 
	C437.843903,111.850258 420.549408,112.493706 402.993561,111.481529 
	C397.564667,111.168526 392.149628,110.614647 386.657898,110.537125 
	C396.862335,116.899498 408.361633,118.995239 419.950806,118.579941 
	C431.275238,118.174133 442.530670,115.841217 454.226349,114.300240 
	C452.336029,115.971130 450.437958,118.115471 448.122162,119.614471 
	C438.483673,125.853355 427.641815,128.255295 416.354126,128.917694 
	C402.896118,129.707443 389.784790,127.585472 376.861664,123.973396 
	C374.819000,123.402466 372.689972,123.140640 370.460541,123.191734 
	C379.422180,130.518524 389.826233,134.702896 401.193909,134.965561 
	C412.397247,135.224442 423.636993,133.908356 434.357513,133.311310 
	C432.206665,138.217087 415.542938,145.931686 399.768250,146.280563 
	C386.989899,146.563141 374.155884,144.327606 362.225769,143.285767 
	C373.737579,150.005646 387.244476,152.097870 401.433228,150.447617 
	C401.530975,151.085739 401.725372,151.545868 401.601410,151.659943 
	C386.671051,165.395813 369.966644,170.653015 353.987457,161.483871 
	C348.524750,158.349258 342.676025,155.835815 336.851501,153.402939 
	C333.463776,151.987915 333.017792,150.025604 334.638580,147.197464 
	C339.438080,138.822632 344.857483,130.752975 349.035309,122.082550 
	C357.313385,104.902725 371.628052,95.353706 388.786469,89.319412 
	C409.674622,81.973465 430.740631,75.134514 451.667755,67.897232 
	C459.466187,65.200287 467.089935,61.998184 474.793335,59.026432 
	C474.678131,58.632187 474.562958,58.237942 474.447784,57.843697 
	C473.103394,58.094227 471.706146,58.187366 470.422363,58.618401 
	C441.227386,68.420349 412.023041,78.195549 382.881958,88.155708 
	C378.178497,89.763306 373.693481,92.078903 369.236023,94.322571 
	C360.567230,98.686043 353.632507,104.808846 348.753052,113.450294 
	C342.045868,125.328674 334.677002,136.832626 327.891022,148.668655 
	C327.226471,149.827789 328.104919,153.211685 329.209625,153.803406 
	C333.119415,155.897659 337.319519,157.741043 341.627472,158.739716 
	C350.414917,160.776810 356.624573,165.091202 357.926636,174.562149 
	C358.354706,177.675873 360.137970,178.107712 362.811859,178.010574 
	C374.135132,177.599197 385.462982,177.174988 396.790375,177.139648 
	C398.900452,177.133057 401.042084,178.840561 403.111633,179.872330 
	C403.661377,180.146378 403.998657,180.847733 404.431702,181.354416 
	C416.563477,195.549896 416.481445,195.542786 414.860077,214.134476 
	C414.436859,218.987564 410.487122,219.402420 407.398376,221.031158 
	C407.130554,221.172348 406.742035,221.085114 406.409546,221.103180 
	C399.075745,221.501846 391.741913,221.900345 384.931335,222.270477 
	C381.421112,230.196335 377.197754,231.744141 367.757050,229.835190 
	C362.080139,228.687302 356.352692,227.758865 350.619324,226.930038 
	C346.017670,226.264832 342.938843,224.308105 342.044617,219.361145 
	C341.277893,215.119766 340.013885,210.968307 338.969788,206.777084 
	C338.483856,206.580734 337.997925,206.384399 337.511993,206.188049 
	C335.716003,209.886292 332.800873,213.458755 332.368011,217.310181 
	C331.581482,224.308121 331.102600,231.736984 332.636993,238.500107 
	C334.599243,247.148712 338.694427,255.311417 341.846619,263.692474 
	C346.349243,275.664093 351.086029,287.556641 355.211243,299.657349 
	C357.232483,305.586395 350.624573,307.153137 348.381348,311.161224 
	C342.997192,289.982758 336.337982,269.727051 324.648682,251.562744 
	C324.186584,251.749481 323.724487,251.936218 323.262390,252.122955 
	C325.301147,257.063385 327.820831,261.865753 329.286713,266.970673 
	C333.365906,281.176910 336.966797,295.519867 340.840576,309.786011 
	C342.572052,316.162811 341.212799,321.500610 336.155945,325.876587 
	C334.799774,327.050171 333.673706,328.489624 332.562592,329.678070 
	C330.974304,317.615356 329.865692,305.620453 327.706879,293.817627 
	C325.599030,282.293182 323.118164,270.704071 315.826141,261.029358 
	C317.728485,268.925079 320.540436,276.730011 321.339325,284.735840 
	C322.889771,300.273621 323.265442,315.926971 324.219391,331.526855 
	C324.577545,337.382965 321.615204,340.826904 316.064972,343.173401 
	C304.636047,299.524506 297.896149,255.756943 307.842407,210.147888 
	C309.172974,204.835693 310.284821,200.252563 311.396698,195.669418 
	C310.811768,195.538757 310.226868,195.408081 309.641937,195.277405 
	C308.416595,200.180420 307.191223,205.083420 305.965881,209.986420 
	C299.410156,233.619095 296.414551,257.787445 297.857483,282.179382 
	C299.153229,304.083496 302.188049,325.888794 304.662170,347.714325 
	C305.001343,350.706024 304.684479,352.471954 302.021545,354.334808 
	C299.085724,356.388519 297.631500,354.551331 295.462585,353.378998 
	C291.184998,351.066925 289.731171,347.745178 289.586914,342.910370 
	C288.902069,319.958466 286.608459,296.976440 287.346405,274.084351 
	C287.965607,254.874893 291.984344,235.775955 294.471222,216.624603 
	C294.777374,214.267166 294.918610,211.888336 294.712616,209.483078 
	C280.046722,250.883423 277.341797,293.912933 277.199249,337.360962 
	C269.822144,334.729614 266.776581,330.391296 267.107422,323.151703 
	C268.586243,290.793945 272.311829,258.754944 280.736786,227.383789 
	C280.985016,226.459457 281.010681,225.475327 280.537842,224.395111 
	C269.516541,255.052383 261.114136,286.342712 257.397461,320.528687 
	C252.838531,315.089203 249.202240,310.931335 245.847046,306.557831 
	C245.327103,305.880127 245.817764,304.083191 246.319748,303.032562 
	C247.609512,300.333008 249.220535,297.789276 250.608627,295.133881 
	C253.394028,289.805481 253.969131,284.337006 251.175186,278.835602 
	C248.085541,272.751984 248.350433,266.748108 250.848267,260.514069 
	C254.500519,251.398834 257.810822,242.147156 261.377228,232.996674 
	C262.912537,229.057495 262.112457,226.242813 258.788727,223.392746 
	C250.862854,216.596344 249.935699,209.591385 255.730667,200.895859 
	C262.837433,190.231949 273.368439,183.894409 284.857178,178.984009 
	C289.379822,177.050995 294.046539,175.455139 298.491852,173.040024 
	C297.378326,173.040024 296.198181,172.795120 295.161469,173.077301 
	C282.546509,176.511002 270.389313,180.997162 260.117065,189.419540 
	C254.047974,194.395691 249.627045,200.477310 247.798065,208.324921 
	C247.434021,209.886948 246.077515,211.677460 244.674683,212.465515 
	C232.513046,219.297607 220.452469,226.371460 207.911087,232.442139 
	C200.598129,235.981995 194.326569,240.014175 190.414200,247.278488 
	C189.155655,249.615311 187.682602,251.870331 186.059464,253.971008 
	C180.135742,261.637634 171.908142,264.116852 162.629135,261.330475 
	C160.909119,260.813995 158.952530,261.057068 157.258957,260.490051 
	C155.996918,260.067535 154.344254,259.077209 154.056274,258.016449 
	C153.816330,257.132629 155.090714,255.034851 156.065933,254.750900 
	C163.949860,252.455353 166.498016,245.624039 170.048737,239.135574 
	C165.422379,238.514175 160.315475,240.343384 157.453674,235.839355 
	C164.104858,233.999054 170.899963,230.188721 177.303329,230.761063 
	C189.503113,231.851486 194.743057,223.818146 200.958176,216.484604 
	C206.298889,210.182800 212.676132,205.476257 219.637680,200.989151 
	C225.554642,197.175354 229.865845,190.840958 234.778900,185.521469 
	C235.886353,184.322388 236.716721,182.783234 237.380615,181.271515 
	C245.005920,163.908676 259.535370,158.030899 277.165741,156.864944 
	C280.861145,156.620560 284.736694,155.497101 288.039551,153.816467 
	C292.324982,151.635864 292.882416,147.596558 289.354858,144.375610 
	C283.049561,138.618378 279.485992,131.543427 277.420746,123.445702 
	C277.035461,121.935081 275.784637,120.626389 274.858459,119.275810 
	C270.858215,113.442604 271.210297,106.808250 275.732391,101.334824 
	C276.658173,100.214264 277.352112,98.871765 277.998810,97.555855 
	C283.085876,87.204895 301.149017,84.411446 309.087036,92.770432 
	C309.774323,93.494156 310.395233,94.296730 311.155609,94.932777 
	C317.141632,99.940086 317.149780,99.930344 314.127106,107.412201 
	C316.293549,105.699615 318.459991,103.987022 321.705780,101.421196 
	C320.664490,108.813332 319.761932,115.220665 318.696472,122.784325 
	C317.217651,118.489746 315.868256,115.243774 311.511017,117.991264 
	C307.485779,111.104111 301.951813,107.704994 294.298462,108.863213 
	C292.071106,109.200287 289.715027,110.097618 287.928894,111.425461 
	C286.805878,112.260353 286.633301,114.373703 286.034302,115.913498 
	C287.551514,116.119820 289.116974,116.653481 290.572296,116.439209 
	C291.990173,116.230446 293.266846,114.798653 294.655853,114.712196 
	C297.699463,114.522758 300.960815,114.254242 303.779724,115.141373 
	C306.119110,115.877586 307.329407,118.393974 304.617981,120.589966 
	C301.207520,123.352119 301.097748,126.787140 301.297699,130.895523 
	C301.506500,135.185471 300.274109,139.545578 299.608673,144.328598 
	C301.536652,143.217972 303.552155,142.056931 305.538635,140.912613 
	C307.809052,151.242126 305.134033,158.172928 295.338013,166.246521 
	C294.286682,166.902008 293.748718,167.183853 293.210754,167.465683 
	C293.267822,167.653488 293.324921,167.841293 293.381989,168.029083 
	C294.374237,167.815765 295.366516,167.602448 296.358765,167.389114 
M378.130768,200.738968 
	C373.906586,200.648666 369.682373,200.558365 364.818909,200.155670 
	C363.929962,200.265839 363.041046,200.376007 361.204132,200.583252 
	C356.605865,200.583252 352.007568,200.583252 347.325500,200.583252 
	C347.325500,206.104126 347.325500,210.977493 347.325500,216.584854 
	C352.498535,216.584854 357.347839,216.584854 362.457336,216.584854 
	C362.295593,218.473831 361.947388,219.665421 362.170837,220.737915 
	C362.395142,221.814621 363.189056,222.772675 363.733368,223.782700 
	C364.375549,222.783951 365.259216,221.859863 365.597076,220.767014 
	C365.994110,219.482788 365.917267,218.052063 366.045929,216.684860 
	C366.702118,216.625427 367.358307,216.565994 368.014526,216.506577 
	C368.188873,218.224014 368.160828,219.996140 368.605225,221.640610 
	C368.928192,222.835739 369.875702,223.862061 370.544769,224.963654 
	C371.331604,223.918350 372.767792,222.883209 372.784332,221.825836 
	C372.835419,218.561920 372.344818,215.289505 372.873596,211.988510 
	C377.434875,213.796600 375.169403,217.738815 375.706238,220.834518 
	C375.951477,222.248856 376.691559,223.577377 377.207153,224.944824 
	C378.035004,223.637054 379.399628,222.398407 379.578796,221.007111 
	C379.949860,218.125381 379.690704,215.162521 379.690704,212.675064 
	C382.358765,214.283859 384.283997,215.444733 386.790863,216.944733 
	C387.680145,216.837662 388.569427,216.730606 390.227783,216.533188 
	C392.129700,216.424118 394.031586,216.315048 395.718750,216.218292 
	C395.718750,210.698929 395.718750,205.822205 395.718750,199.716949 
	C392.292603,200.993362 389.645111,201.979660 386.829010,202.536240 
	C386.663696,202.252960 386.420837,202.076157 385.838348,201.240799 
	C384.549988,201.135712 383.261597,201.030640 381.667603,200.399536 
	C380.788300,200.571381 379.909027,200.743225 378.130768,200.738968 
M258.281342,215.929138 
	C259.641663,217.421982 261.001984,218.914825 263.707397,221.883759 
	C268.356781,199.141083 284.082764,187.917358 301.531128,177.967285 
	C294.565796,180.054443 288.013214,182.725464 281.713959,185.899323 
	C273.019012,190.280258 265.004822,195.639481 259.503235,204.003952 
	C257.206879,207.495316 255.772720,211.111725 258.281342,215.929138 
M381.489532,190.092621 
	C385.923492,190.092621 390.357452,190.092621 394.910767,190.092621 
	C395.246094,187.304108 395.491852,185.260452 395.740051,183.196655 
	C381.223602,183.196655 367.280304,183.167740 353.337219,183.209320 
	C346.763641,183.228912 346.763824,183.290207 346.631287,190.100082 
	C357.917999,190.100082 369.205963,190.100082 381.489532,190.092621 
M269.050781,174.466629 
	C267.984924,175.812119 266.919067,177.157623 265.853210,178.503113 
	C266.192657,178.940628 266.532074,179.378128 266.871521,179.815628 
	C273.062531,176.142151 279.327026,172.583527 285.387054,168.705383 
	C286.716736,167.854462 287.319000,165.866837 288.256226,164.402679 
	C286.738373,163.530960 285.301971,162.112717 283.690033,161.872543 
	C268.481506,159.606400 255.872101,164.703812 245.507187,175.915298 
	C254.034760,172.629120 261.945160,167.174408 272.706055,168.055527 
	C271.351471,170.535950 270.436584,172.211227 269.050781,174.466629 
M213.235947,212.709808 
	C208.055588,217.476196 202.875244,222.242569 196.740036,227.887497 
	C203.846191,227.035080 222.368256,216.754547 228.185181,210.918411 
	C229.179199,209.921112 229.489349,208.242188 230.115433,206.878159 
	C228.577347,206.556305 226.726501,205.525528 225.557846,206.041092 
	C221.511505,207.826157 217.702515,210.149200 213.235947,212.709808 
M299.968536,94.552437 
	C301.385498,99.011032 299.999817,101.211327 295.129974,101.878250 
	C292.342804,102.259964 289.429596,101.988274 286.722595,102.635696 
	C280.047119,104.232239 277.833801,110.941643 282.442108,116.620941 
	C282.142090,110.136459 286.192657,107.988716 291.171082,106.546616 
	C294.821442,105.489220 298.540283,104.424294 301.894501,102.709312 
	C303.221405,102.030891 304.665863,99.210831 304.235443,98.029556 
	C303.609039,96.310524 301.335480,95.191704 299.968536,94.552437 
M323.375580,176.017929 
	C324.932831,174.559052 326.809845,173.317383 327.979736,171.595352 
	C330.298340,168.182449 329.304413,164.376389 326.021484,162.646973 
	C322.202942,160.635406 314.982941,161.733826 311.230225,164.998947 
	C315.375702,165.268875 320.617767,162.612305 322.774689,167.920044 
	C324.936829,173.240570 319.616425,175.089493 316.917755,178.562698 
	C318.853363,177.837021 320.788940,177.111343 323.375580,176.017929 
M180.736954,254.056595 
	C181.219238,253.181198 181.701523,252.305817 182.267349,251.278778 
	C175.911087,253.456223 170.028397,255.471451 164.145691,257.486694 
	C164.113571,258.002228 164.081467,258.517761 164.049347,259.033295 
	C166.231247,259.491516 168.748215,260.864044 170.523758,260.213379 
	C173.983322,258.945557 177.027664,256.544647 180.736954,254.056595 
M177.402878,233.718658 
	C175.982071,234.438904 174.561249,235.159134 173.355606,235.770309 
	C176.629120,237.276413 179.340256,238.673538 182.171051,239.758560 
	C183.450272,240.248871 184.967484,240.118271 186.376740,240.269348 
	C186.134903,238.502274 186.464508,235.685196 185.535980,235.179871 
	C183.396698,234.015610 180.646133,233.974564 177.402878,233.718658 
M293.184479,127.325943 
	C292.118683,125.297531 291.052887,123.269119 289.343079,120.015030 
	C289.343079,124.320793 289.343079,126.992455 289.343079,131.369659 
	C291.361267,129.731277 292.422546,128.869736 293.184479,127.325943 
M312.037964,107.419594 
	C312.269623,107.490898 312.501312,107.562210 312.732971,107.633514 
	C312.654419,107.414948 312.575897,107.196381 312.037964,107.419594 
z"/>
<path fill="#BB2436" opacity="1.000000" stroke="none" 
	d="
M225.469208,124.407501 
	C226.934570,123.308014 228.083176,122.422195 229.231766,121.536377 
	C214.572678,124.658669 200.137543,128.059555 185.153275,127.389977 
	C170.156754,126.719849 155.981842,123.791336 144.954559,112.121078 
	C167.587677,118.956398 189.814072,119.794266 211.630264,108.996254 
	C210.129425,108.996254 208.625793,108.938812 207.128494,109.011612 
	C205.465530,109.092468 203.810638,109.327431 202.148315,109.434631 
	C183.479630,110.638535 164.844086,111.446503 146.711960,105.322319 
	C139.651184,102.937515 133.399292,100.067390 129.752487,92.573997 
	C127.832115,88.628044 122.803406,86.212090 124.103470,80.594971 
	C121.683319,79.191124 119.123108,78.187889 117.204460,76.468674 
	C114.910110,74.412819 111.514946,71.740158 111.521713,69.342911 
	C111.536118,64.238754 108.487411,62.271545 105.333809,59.671909 
	C102.161865,57.057152 100.076759,53.825733 100.706329,49.228458 
	C100.910667,47.736313 99.683884,45.942207 98.843262,44.436039 
	C97.316086,41.699730 95.067924,39.254482 94.072411,36.360382 
	C92.769394,32.572304 95.176750,30.507061 98.949768,31.911020 
	C101.097389,32.710167 103.262215,33.849541 104.985748,35.337776 
	C114.493759,43.547806 125.588135,48.875122 137.292587,52.891335 
	C163.115494,61.752087 189.101654,70.138786 214.896698,79.078163 
	C223.516739,82.065475 231.892227,85.865417 240.130493,89.813515 
	C246.731766,92.977097 251.511047,98.210464 255.022339,104.791504 
	C259.723267,113.602173 264.645142,122.326622 270.045349,130.719269 
	C272.782593,134.973312 276.917480,138.304520 280.143402,142.277924 
	C281.688416,144.180893 284.040588,147.196655 283.446198,148.660263 
	C282.520172,150.940567 279.566589,152.639816 277.136475,153.973389 
	C275.744385,154.737305 273.688721,154.292114 273.097046,153.262619 
	C272.175598,150.524261 271.657593,147.557999 270.261993,145.087509 
	C264.612579,135.087006 258.262970,125.462051 252.983490,115.277702 
	C246.565414,102.896965 236.674484,94.854240 224.122162,89.662857 
	C217.664520,86.992119 211.168579,84.368584 204.548981,82.142960 
	C180.724304,74.132660 156.844543,66.285904 132.970032,58.424557 
	C130.576035,57.636269 128.076508,57.168427 125.625961,56.551865 
	C125.496620,56.973442 125.367279,57.395020 125.237946,57.816593 
	C129.504242,59.514286 133.709442,61.389885 138.047165,62.879593 
	C159.458603,70.232918 181.082047,77.007011 202.300247,84.876434 
	C239.663376,98.733704 242.821625,102.719345 256.516052,140.130280 
	C258.050629,144.322495 260.810120,149.340256 259.637146,152.851044 
	C258.679443,155.717422 252.699661,156.912827 248.937943,158.832291 
	C247.158005,159.740524 245.360947,160.615448 243.566635,161.495255 
	C225.548126,170.330368 209.558395,167.919449 194.905289,154.144562 
	C194.331924,153.605545 193.866226,152.951996 193.417313,152.429733 
	C201.211487,151.666321 209.046310,151.685379 216.471466,149.950790 
	C223.916428,148.211548 230.952682,144.722778 237.876083,140.988464 
	C224.991516,143.469666 212.284698,145.986664 199.202927,144.918472 
	C186.077393,143.846725 174.190506,139.568665 163.798340,130.999039 
	C185.087997,135.643417 205.771118,136.338531 225.469208,124.407501 
z"/>
<path fill="#BB2738" opacity="1.000000" stroke="none" 
	d="
M216.757233,272.151825 
	C233.756805,309.356201 260.000397,337.859619 294.005554,359.550079 
	C297.545654,361.808167 300.211212,362.070404 303.835724,359.664124 
	C350.663605,328.575348 384.223602,287.715607 398.210205,232.314545 
	C398.532013,231.039917 398.977966,229.796631 399.393066,228.450974 
	C402.271240,228.450974 405.025940,228.450974 408.443298,228.450974 
	C407.429626,232.744064 406.552094,236.599091 405.607971,240.437744 
	C395.566833,281.264282 371.977234,313.770142 341.782593,341.700470 
	C330.263824,352.355408 316.557922,360.644501 303.860138,370.027222 
	C300.658783,372.392761 297.701080,372.166412 294.258911,370.120239 
	C247.798370,342.501862 215.628952,303.443024 199.188705,251.746414 
	C197.751434,247.226837 199.745895,244.190369 205.117111,242.167572 
	C208.948761,252.045914 212.774353,261.926697 216.757233,272.151825 
z"/>
<path fill="#060606" opacity="1.000000" stroke="none" 
	d="
M67.991295,453.118896 
	C67.539650,449.941254 69.093651,449.748932 71.217705,449.774872 
	C78.708580,449.866547 86.205315,449.963562 93.691925,449.763245 
	C99.561394,449.606140 103.645386,451.987366 105.938843,457.323303 
	C108.301796,462.820953 107.022202,468.692383 102.690048,472.892029 
	C102.103615,473.460510 101.446915,473.956512 101.723282,473.722015 
	C104.208725,477.352997 107.601395,480.481293 108.694794,484.272675 
	C111.273697,493.215088 104.939987,500.476257 94.570625,500.899780 
	C85.943649,501.252136 77.290833,500.971985 67.991135,500.971985 
	C67.991135,485.099335 67.991135,469.354279 67.991295,453.118896 
M86.462402,492.216034 
	C88.791710,492.183868 91.147438,492.361389 93.444336,492.071930 
	C97.211441,491.597290 99.399658,488.801331 98.685936,485.497162 
	C98.168938,483.103699 95.668442,479.744354 93.585548,479.362488 
	C88.655373,478.458649 83.447037,479.072021 78.312103,479.072021 
	C78.312103,483.720795 78.312103,487.793365 78.312103,492.216034 
	C80.892342,492.216034 83.196198,492.216034 86.462402,492.216034 
M90.958908,471.042450 
	C95.042770,470.760956 97.325882,468.202179 96.638321,464.526123 
	C96.225906,462.321167 93.834702,459.210297 91.879883,458.829010 
	C87.482239,457.971283 82.802498,458.559998 78.353485,458.559998 
	C78.353485,463.029816 78.353485,466.913483 78.353485,471.048279 
	C82.484619,471.048279 86.273750,471.048279 90.958908,471.042450 
z"/>
<path fill="#BC2839" opacity="1.000000" stroke="none" 
	d="
M321.477417,78.344635 
	C296.299561,77.174019 271.786163,78.835373 247.282150,82.294800 
	C241.863586,83.059784 235.867599,79.734840 230.325928,77.448799 
	C278.056763,66.868935 325.556458,65.820084 374.399078,76.879356 
	C366.690308,80.861526 360.469604,82.988045 352.731659,81.504112 
	C342.640289,79.568848 332.221649,79.339806 321.477417,78.344635 
z"/>
<path fill="#0A0A0A" opacity="1.000000" stroke="none" 
	d="
M313.458008,491.959961 
	C316.324829,492.297302 318.979462,493.225006 321.215912,492.616333 
	C323.602203,491.966888 325.593475,489.865967 327.757233,488.398743 
	C326.175018,486.326416 325.016998,483.358612 322.923004,482.366730 
	C318.459503,480.252380 313.442322,479.345428 308.779175,477.603271 
	C303.987854,475.813232 300.476074,472.649841 300.052338,467.126678 
	C299.583130,461.010437 301.623871,456.009491 306.884766,452.575623 
	C307.851318,451.944733 308.905792,451.389526 309.993530,451.012421 
	C319.531494,447.706177 328.193817,449.776245 336.729309,455.186554 
	C335.266571,457.993835 333.989899,460.444031 333.256165,461.852264 
	C327.553925,460.517609 322.519562,458.955231 317.368896,458.280365 
	C314.365387,457.886841 311.308105,459.243805 310.708069,462.947144 
	C310.089691,466.763580 312.734558,468.280792 315.749512,469.256989 
	C320.173187,470.689362 324.720093,471.774414 329.068237,473.398926 
	C335.846405,475.931244 338.936890,480.510620 338.721130,486.961700 
	C338.490234,493.866058 334.722351,498.857452 327.756775,500.693237 
	C317.173035,503.482544 307.428070,501.206573 297.990601,495.175720 
	C299.433014,492.323364 300.754211,489.710785 302.088165,487.072876 
	C305.892303,488.737335 309.477051,490.305786 313.458008,491.959961 
z"/>
<path fill="#070707" opacity="1.000000" stroke="none" 
	d="
M497.016144,488.983093 
	C497.016144,475.855072 497.016144,463.223450 497.016144,450.199036 
	C508.749390,450.199036 520.289856,450.199036 532.111816,450.199036 
	C532.111816,452.673401 532.111816,455.260742 532.111816,458.300842 
	C523.994385,458.300842 515.915405,458.300842 507.463806,458.300842 
	C507.463806,462.611389 507.463806,466.482422 507.463806,470.911011 
	C514.433594,470.911011 521.487671,470.911011 528.773926,470.911011 
	C528.773926,473.722260 528.773926,475.996307 528.773926,478.818481 
	C521.872375,478.818481 514.820862,478.818481 507.433289,478.818481 
	C507.433289,483.410370 507.433289,487.467468 507.433289,492.075562 
	C515.715149,492.075562 524.094360,492.075562 532.736267,492.075562 
	C532.736267,495.194244 532.736267,497.780396 532.736267,500.701752 
	C521.117615,500.701752 509.400543,500.701752 497.016144,500.701752 
	C497.016144,496.996979 497.016144,493.238220 497.016144,488.983093 
z"/>
<path fill="#080808" opacity="1.000000" stroke="none" 
	d="
M433.182739,501.030212 
	C430.031708,501.568085 429.057861,499.968201 428.194092,497.716583 
	C424.593933,488.332123 424.532837,488.523651 414.373779,488.278778 
	C409.676208,488.165527 406.427460,488.569397 404.897552,494.178955 
	C402.730103,502.126160 402.225220,501.988464 392.293884,500.508026 
	C398.537506,484.141724 404.651215,467.812622 411.168213,451.646088 
	C411.655945,450.436157 415.022766,449.968079 417.060028,449.945404 
	C418.474792,449.929626 420.757385,450.933746 421.199432,452.054993 
	C427.533478,468.120697 433.620148,484.283936 439.997253,501.030060 
	C437.495392,501.030060 435.554535,501.030060 433.182739,501.030212 
M416.839325,463.013947 
	C416.624298,462.820984 416.429077,462.594421 416.185089,462.450562 
	C416.078705,462.387787 415.758301,462.450745 415.727692,462.530518 
	C413.431549,468.511932 411.154694,474.500732 408.742828,480.839783 
	C413.768616,480.839783 418.172516,480.839783 423.041046,480.839783 
	C420.971893,474.924286 419.012756,469.323303 416.839325,463.013947 
z"/>
<path fill="#080808" opacity="1.000000" stroke="none" 
	d="
M128.248901,472.153687 
	C130.827057,465.433716 133.441437,459.135101 135.616074,452.688141 
	C136.540787,449.946686 138.171814,449.533905 140.498581,449.811951 
	C142.746857,450.080597 145.375076,448.731781 146.674667,452.243317 
	C152.607437,468.273895 158.750900,484.226471 165.129364,501.025421 
	C161.942856,501.025421 159.201553,501.284607 156.554092,500.899200 
	C155.480057,500.742828 153.906021,499.283264 153.757645,498.245422 
	C152.397369,488.731293 146.303955,487.539734 138.142288,488.152802 
	C133.898911,488.471527 131.685837,489.299652 130.321732,493.576019 
	C127.608292,502.082550 127.338806,501.996582 117.566177,500.474609 
	C121.100929,491.098846 124.604065,481.806946 128.248901,472.153687 
M147.829056,479.922058 
	C145.780975,474.011780 143.732895,468.101532 141.233078,460.887695 
	C138.566162,468.221405 136.319672,474.399017 134.010147,480.749969 
	C139.056259,480.749969 143.345337,480.749969 147.829056,479.922058 
z"/>
<path fill="#101010" opacity="1.000000" stroke="none" 
	d="
M169.201385,560.834229 
	C163.993988,554.401794 159.011902,548.242371 153.115860,540.953064 
	C153.115860,551.752563 153.115860,561.114258 153.115860,570.681641 
	C150.670593,570.681641 148.752426,570.681641 146.546677,570.681641 
	C146.546677,556.421387 146.546677,542.324890 146.546677,527.983459 
	C149.615494,526.632690 151.909241,527.351624 154.093338,530.186890 
	C160.999771,539.152161 168.118118,547.954163 175.871460,557.722656 
	C175.871460,547.435486 175.871460,538.115845 175.871460,528.427368 
	C178.471100,528.427368 180.488113,528.427368 182.765915,528.427368 
	C182.765915,542.448914 182.765915,556.376831 182.765915,570.428528 
	C179.310486,571.628418 176.756454,570.891602 174.718399,567.746643 
	C173.186722,565.383057 171.206970,563.309814 169.201385,560.834229 
z"/>
<path fill="#0A0A0A" opacity="1.000000" stroke="none" 
	d="
M344.510010,565.478760 
	C345.413696,567.062195 346.107025,568.340149 346.831482,569.675354 
	C341.752289,571.084045 338.152039,569.938782 336.180786,565.058350 
	C335.751678,563.996033 334.786560,563.146118 334.379608,562.079529 
	C332.001160,555.845825 327.492554,554.099182 320.640442,556.009521 
	C320.640442,560.362061 320.640442,565.063538 320.640442,569.881958 
	C318.015198,569.881958 316.070190,569.881958 314.025299,569.881958 
	C314.025299,555.749451 314.025299,541.835510 314.025299,527.632751 
	C320.699280,527.632751 327.162018,527.359619 333.590240,527.713867 
	C339.371704,528.032593 343.008850,531.761169 344.787933,537.011597 
	C346.650970,542.509888 345.411102,547.536133 341.180023,551.641907 
	C340.246063,552.548157 339.066833,553.201660 337.620697,554.245850 
	C339.861847,557.912537 342.080750,561.542908 344.510010,565.478760 
M320.446808,542.452759 
	C320.446808,544.675598 320.446808,546.898499 320.446808,549.415100 
	C324.706604,549.415100 328.168915,549.527405 331.620850,549.386169 
	C335.805023,549.215027 338.458008,546.272400 338.599487,541.930237 
	C338.732483,537.849243 336.002838,534.089172 332.182526,533.775513 
	C328.442932,533.468506 324.658417,533.708679 320.446808,533.708679 
	C320.446808,536.595520 320.446808,539.048767 320.446808,542.452759 
z"/>
<path fill="#070707" opacity="1.000000" stroke="none" 
	d="
M364.161438,486.990784 
	C364.161438,477.364075 364.161438,468.235168 364.161438,458.539581 
	C358.798401,458.539581 353.740234,458.539581 348.469238,458.539581 
	C348.469238,455.534241 348.469238,453.094757 348.469238,450.229462 
	C362.411682,450.229462 376.415802,450.229462 390.667725,450.229462 
	C390.667725,452.852417 390.667725,455.420837 390.667725,458.499939 
	C385.226135,458.499939 379.970581,458.499939 374.387512,458.499939 
	C374.387512,472.774261 374.387512,486.547882 374.387512,500.672180 
	C370.989166,500.672180 367.919098,500.672180 364.161438,500.672180 
	C364.161438,496.349152 364.161438,491.918884 364.161438,486.990784 
z"/>
<path fill="#060606" opacity="1.000000" stroke="none" 
	d="
M457.887268,473.005676 
	C457.887268,468.039703 457.887268,463.572296 457.887268,458.578430 
	C452.283112,458.578430 447.044312,458.578430 441.528870,458.578430 
	C441.528870,455.494873 441.528870,452.940887 441.528870,450.093079 
	C455.533813,450.093079 469.429077,450.093079 483.610138,450.093079 
	C483.610138,452.756287 483.610138,455.335541 483.610138,458.300110 
	C478.622406,458.300110 473.670135,458.300110 468.213562,458.300110 
	C468.213562,472.539856 468.213562,486.414703 468.213562,500.654327 
	C464.667511,500.654327 461.612335,500.654327 457.887268,500.654327 
	C457.887268,491.681335 457.887268,482.592804 457.887268,473.005676 
z"/>
<path fill="#0C0C0C" opacity="1.000000" stroke="none" 
	d="
M293.452545,551.560425 
	C287.897003,551.560181 282.786285,551.560181 277.478729,551.560181 
	C277.478729,556.083801 277.478729,560.013977 277.478729,564.476196 
	C284.785126,564.476196 292.013550,564.476196 299.665100,564.476196 
	C299.782837,566.708923 299.874176,568.440918 299.985931,570.560547 
	C290.213440,570.560547 280.666199,570.560547 270.855957,570.560547 
	C270.855957,556.437683 270.855957,542.213379 270.855957,527.745361 
	C280.174896,527.745361 289.275208,527.745361 298.784454,527.745361 
	C298.784454,529.441772 298.784454,531.300720 298.784454,533.713989 
	C291.722565,533.713989 284.658417,533.713989 277.445190,533.713989 
	C277.445190,538.025330 277.445190,541.810120 277.445190,545.961548 
	C283.648163,545.961548 289.759888,545.961548 296.226501,545.961548 
	C296.204895,548.446228 298.565491,551.325378 293.452545,551.560425 
z"/>
<path fill="#101010" opacity="1.000000" stroke="none" 
	d="
M182.971161,449.777405 
	C184.690384,449.849976 185.990768,449.922546 187.595184,450.012054 
	C187.595184,464.014832 187.595184,477.785919 187.595184,492.011475 
	C196.480011,492.011475 205.063065,492.011475 213.920227,492.011475 
	C213.920227,495.229950 213.920227,497.992981 213.920227,500.903992 
	C202.119354,500.903992 190.486115,500.903992 178.504059,500.903992 
	C178.504059,484.035645 178.504059,467.285461 178.504059,450.064301 
	C179.719055,449.978180 181.135681,449.877747 182.971161,449.777405 
z"/>
<path fill="#090909" opacity="1.000000" stroke="none" 
	d="
M253.940292,501.031128 
	C244.505524,501.031128 235.561401,501.031128 226.324219,501.031128 
	C226.324219,483.961517 226.324219,467.256500 226.324219,450.174652 
	C229.305603,450.174652 232.365860,450.174652 235.931366,450.174652 
	C235.931366,463.847961 235.931366,477.714783 235.931366,492.140442 
	C244.780319,492.140442 253.149780,492.140442 261.772064,492.140442 
	C261.772064,495.279480 261.772064,497.856262 261.772064,501.031128 
	C259.300812,501.031128 256.865875,501.031128 253.940292,501.031128 
z"/>
<path fill="#0D0D0D" opacity="1.000000" stroke="none" 
	d="
M372.310089,533.529480 
	C368.616669,534.093750 365.484344,535.572632 366.239319,539.127014 
	C366.694977,541.272400 369.319794,543.560730 371.527313,544.593079 
	C375.096741,546.262268 379.204987,546.732483 382.940948,548.103516 
	C388.482025,550.137024 390.925507,553.800659 390.736938,559.005371 
	C390.548401,564.209473 387.833282,568.147095 382.587311,569.799805 
	C373.556763,572.644775 365.266602,570.681030 357.143127,565.192749 
	C358.140594,563.287354 359.027832,561.592529 359.811646,560.095215 
	C363.976288,561.634338 367.717499,563.404175 371.657043,564.331177 
	C374.117645,564.910278 377.026398,564.690063 379.448517,563.924805 
	C380.969971,563.444153 382.796326,561.378845 382.958740,559.860962 
	C383.122375,558.331787 381.792603,555.768799 380.423462,555.117798 
	C376.708649,553.351685 372.631958,552.341125 368.688446,551.062683 
	C361.111969,548.606689 358.498627,545.467224 358.891876,539.241272 
	C359.269745,533.258484 363.267151,529.109985 370.082520,527.646606 
	C376.843994,526.194946 382.888031,527.907715 389.011871,532.049133 
	C388.029419,533.756226 387.093719,535.382141 386.500824,536.412292 
	C381.590363,535.357727 377.168030,534.408020 372.310089,533.529480 
z"/>
<path fill="#0C0C0C" opacity="1.000000" stroke="none" 
	d="
M126.298012,565.237549 
	C120.016609,571.445679 112.834236,572.358459 105.262077,569.562195 
	C97.367317,566.646912 94.515358,559.866455 94.126755,552.136597 
	C93.726265,544.170227 94.037796,536.167969 94.037796,527.841797 
	C96.202164,527.841797 98.253159,527.841797 100.743553,527.841797 
	C100.743553,534.685730 100.616142,541.309021 100.799362,547.923645 
	C100.885971,551.050476 101.186432,554.273376 102.065895,557.253235 
	C103.494347,562.093201 107.125923,564.582275 112.186661,564.585388 
	C117.231781,564.588501 121.035240,562.158997 122.379158,557.327759 
	C123.430359,553.548767 123.654030,549.481018 123.807053,545.524597 
	C124.031578,539.719604 123.864876,533.899353 123.864876,527.796875 
	C126.243408,527.796875 128.335434,527.796875 131.287064,527.796875 
	C129.822800,540.255737 134.621613,553.285950 126.298012,565.237549 
z"/>
<path fill="#0D0D0D" opacity="1.000000" stroke="none" 
	d="
M231.982758,544.895752 
	C234.094559,550.513428 236.093277,555.758606 238.426498,561.881592 
	C242.268784,551.590332 246.033951,542.349609 249.119263,532.887146 
	C250.671646,528.126160 253.083420,526.451721 258.174316,527.968323 
	C257.816467,529.121826 257.525574,530.338013 257.069000,531.488464 
	C252.287689,543.536865 247.575714,555.615051 242.557251,567.564270 
	C241.934662,569.046692 239.694046,570.591675 238.111664,570.694092 
	C236.844269,570.776123 234.786591,568.982422 234.194901,567.557861 
	C228.790222,554.545837 223.629807,541.432312 218.293625,528.087219 
	C222.954926,526.647705 226.003525,527.114807 227.347107,532.385742 
	C228.407455,536.545532 230.330032,540.485657 231.982758,544.895752 
z"/>
<path fill="#BC2A3B" opacity="1.000000" stroke="none" 
	d="
M193.400330,175.109192 
	C194.104660,185.030060 193.958878,194.633102 195.776535,203.848892 
	C197.209732,211.115463 193.928482,214.923111 189.042770,219.371887 
	C184.089981,197.556351 183.971069,175.947327 184.321243,153.953003 
	C192.272827,159.117828 194.372406,166.222824 193.400330,175.109192 
z"/>
<path fill="#0F0F0F" opacity="1.000000" stroke="none" 
	d="
M484.197510,570.924438 
	C483.311371,569.316406 482.342346,567.667847 482.499878,566.135071 
	C483.282745,558.516724 481.221649,551.866089 477.030212,545.504700 
	C473.409729,540.010010 470.476990,534.062195 467.105438,528.075317 
	C471.880341,526.580750 474.811310,527.556580 476.852509,532.113098 
	C479.334412,537.653320 482.515564,542.880310 485.816040,549.028625 
	C489.170380,542.851746 492.493988,537.504456 495.034515,531.807983 
	C497.056946,527.273010 500.055359,526.827087 504.668823,528.014832 
	C500.888977,534.703796 497.521729,541.327454 493.519135,547.541931 
	C490.128754,552.805908 488.441040,558.216370 489.137726,564.435059 
	C489.357483,566.396790 489.172028,568.403870 489.172028,570.715759 
	C487.511902,570.796814 486.072968,570.867065 484.197510,570.924438 
z"/>
<path fill="#121212" opacity="1.000000" stroke="none" 
	d="
M440.945984,570.947876 
	C437.009644,571.248169 437.957794,568.641785 437.948456,566.877869 
	C437.891174,556.067200 437.919800,545.256165 437.919800,533.910034 
	C433.128906,533.910034 428.564148,533.910034 423.512207,533.910034 
	C423.387665,531.685730 423.291138,529.961365 423.172516,527.842407 
	C435.054657,527.842407 446.607513,527.842407 458.453003,527.842407 
	C458.453003,529.648987 458.453003,531.382080 458.453003,533.487244 
	C454.025757,533.487244 449.748169,533.487244 444.763000,533.487244 
	C444.763000,542.096741 444.763031,550.355957 444.763000,558.615234 
	C444.762970,561.781372 445.046143,564.987549 444.608398,568.091980 
	C444.455933,569.173340 442.522125,570.003418 440.945984,570.947876 
z"/>
<path fill="#101010" opacity="1.000000" stroke="none" 
	d="
M410.905579,540.017761 
	C410.905579,550.478088 410.905579,560.441406 410.905579,570.670349 
	C408.563599,570.670349 406.633484,570.670349 404.354492,570.670349 
	C404.354492,556.520203 404.354492,542.293823 404.354492,527.775146 
	C406.309631,527.775146 408.240387,527.775146 410.905579,527.775146 
	C410.905579,531.690308 410.905579,535.605530 410.905579,540.017761 
z"/>
<path fill="#020202" opacity="1.000000" stroke="none" 
	d="
M199.531113,557.993835 
	C199.531097,547.710327 199.531097,537.926392 199.531097,527.848145 
	C201.841919,527.848145 203.736069,527.848145 205.906342,527.848145 
	C205.906342,541.991150 205.906342,556.085144 205.906342,570.545288 
	C204.111649,570.545288 202.219269,570.545288 199.531128,570.545288 
	C199.531128,566.637451 199.531128,562.565430 199.531113,557.993835 
z"/>
<path fill="#BC2A3B" opacity="1.000000" stroke="none" 
	d="
M413.824280,155.667969 
	C413.821442,164.218414 413.821442,172.339050 413.821442,180.995285 
	C405.461395,176.110611 401.520996,166.335678 405.162018,159.010132 
	C406.438965,156.440903 410.267731,155.140015 412.931274,153.259949 
	C413.229889,153.919357 413.528503,154.578766 413.824280,155.667969 
z"/>
<path fill="#EFCDD1" opacity="1.000000" stroke="none" 
	d="
M306.406860,209.992477 
	C307.191223,205.083420 308.416595,200.180420 309.641937,195.277405 
	C310.226868,195.408081 310.811768,195.538757 311.396698,195.669418 
	C310.284821,200.252563 309.172974,204.835693 307.895447,209.714462 
	C307.435791,210.006241 307.141815,210.002396 306.406860,209.992477 
z"/>
<path fill="#FBF2F3" opacity="1.000000" stroke="none" 
	d="
M258.101318,215.580109 
	C255.772720,211.111725 257.206879,207.495316 259.503235,204.003952 
	C265.004822,195.639481 273.019012,190.280258 281.713959,185.899323 
	C288.013214,182.725464 294.565796,180.054443 301.531128,177.967285 
	C284.082764,187.917358 268.356781,199.141083 263.707397,221.883759 
	C261.001984,218.914825 259.641663,217.421982 258.101318,215.580109 
z"/>
<path fill="#FCF4F5" opacity="1.000000" stroke="none" 
	d="
M372.064575,212.020401 
	C372.344818,215.289505 372.835419,218.561920 372.784332,221.825836 
	C372.767792,222.883209 371.331604,223.918350 370.544769,224.963654 
	C369.875702,223.862061 368.928192,222.835739 368.605225,221.640610 
	C368.160828,219.996140 368.188873,218.224014 368.014526,216.506577 
	C367.358307,216.565994 366.702118,216.625427 366.045929,216.684860 
	C365.917267,218.052063 365.994110,219.482788 365.597076,220.767014 
	C365.259216,221.859863 364.375549,222.783951 363.733368,223.782715 
	C363.189056,222.772675 362.395142,221.814621 362.170837,220.737915 
	C361.947388,219.665421 362.295593,218.473831 362.457336,216.584854 
	C357.347839,216.584854 352.498535,216.584854 347.325500,216.584854 
	C347.325500,210.977493 347.325500,206.104126 347.325500,200.583252 
	C352.007568,200.583252 356.605865,200.583252 361.647552,200.865448 
	C362.452393,202.390594 362.813812,203.633575 363.175262,204.876556 
	C363.793365,204.592407 364.411438,204.308258 365.012390,204.010132 
	C364.995239,203.996155 364.960876,203.968353 365.030029,204.159210 
	C365.265289,204.582565 365.488770,204.724777 365.818726,204.824463 
	C365.867737,204.872238 365.965027,204.968460 365.931030,205.284271 
	C363.984009,207.624374 364.384308,209.334457 366.807495,210.412994 
	C368.469116,211.152588 370.306030,211.498505 372.064575,212.020401 
z"/>
<path fill="#FCF6F6" opacity="1.000000" stroke="none" 
	d="
M380.991699,190.096344 
	C369.205963,190.100082 357.917999,190.100082 346.631287,190.100082 
	C346.763824,183.290207 346.763641,183.228912 353.337219,183.209320 
	C367.280304,183.167740 381.223602,183.196655 395.740051,183.196655 
	C395.491852,185.260452 395.246094,187.304108 394.910767,190.092621 
	C390.357452,190.092621 385.923492,190.092621 380.991699,190.096344 
z"/>
<path fill="#F8E9EB" opacity="1.000000" stroke="none" 
	d="
M372.469086,212.004456 
	C370.306030,211.498505 368.469116,211.152588 366.807495,210.412994 
	C364.384308,209.334457 363.984009,207.624374 366.282898,205.329620 
	C373.421783,208.761642 375.192017,208.564621 378.394012,204.023346 
	C379.815308,204.337952 380.960083,204.414185 382.104828,204.490417 
	C382.060974,203.302124 382.017090,202.113846 381.973236,200.925552 
	C383.261597,201.030640 384.549988,201.135712 385.752686,201.752289 
	C385.703247,202.697830 385.739532,203.131897 385.775787,203.565948 
	C386.183075,203.365967 386.590363,203.165970 386.997650,202.965973 
	C389.645111,201.979660 392.292603,200.993362 395.718750,199.716949 
	C395.718750,205.822205 395.718750,210.698929 395.718750,216.218292 
	C394.031586,216.315048 392.129700,216.424118 389.736420,216.243835 
	C389.111664,214.653992 389.061584,213.332336 388.743591,212.078659 
	C388.701996,211.914612 386.637299,211.978638 386.606995,212.141357 
	C386.334778,213.603439 386.308044,215.111252 386.209229,216.605621 
	C384.283997,215.444733 382.358765,214.283859 379.690704,212.675064 
	C379.690704,215.162521 379.949860,218.125381 379.578796,221.007111 
	C379.399628,222.398407 378.035004,223.637054 377.207153,224.944824 
	C376.691559,223.577377 375.951477,222.248856 375.706238,220.834518 
	C375.169403,217.738815 377.434875,213.796600 372.469086,212.004456 
z"/>
<path fill="#FAEFF0" opacity="1.000000" stroke="none" 
	d="
M269.286255,174.176575 
	C270.436584,172.211227 271.351471,170.535950 272.706055,168.055527 
	C261.945160,167.174408 254.034760,172.629120 245.507187,175.915298 
	C255.872101,164.703812 268.481506,159.606400 283.690033,161.872543 
	C285.301971,162.112717 286.738373,163.530960 288.256226,164.402679 
	C287.319000,165.866837 286.716736,167.854462 285.387054,168.705383 
	C279.327026,172.583527 273.062531,176.142151 266.871521,179.815628 
	C266.532074,179.378128 266.192657,178.940628 265.853210,178.503113 
	C266.919067,177.157623 267.984924,175.812119 269.286255,174.176575 
z"/>
<path fill="#FAEFF0" opacity="1.000000" stroke="none" 
	d="
M213.519562,212.488663 
	C217.702515,210.149200 221.511505,207.826157 225.557846,206.041092 
	C226.726501,205.525528 228.577347,206.556305 230.115417,206.878143 
	C229.489349,208.242188 229.179199,209.921112 228.185181,210.918411 
	C222.368256,216.754547 203.846191,227.035080 196.740036,227.887497 
	C202.875244,222.242569 208.055588,217.476196 213.519562,212.488663 
z"/>
<path fill="#F8E9EB" opacity="1.000000" stroke="none" 
	d="
M299.866394,94.184700 
	C301.335480,95.191704 303.609039,96.310524 304.235443,98.029556 
	C304.665863,99.210831 303.221405,102.030891 301.894501,102.709312 
	C298.540283,104.424294 294.821442,105.489220 291.171082,106.546616 
	C286.192657,107.988716 282.142090,110.136459 282.442108,116.620941 
	C277.833801,110.941643 280.047119,104.232239 286.722595,102.635696 
	C289.429596,101.988274 292.342804,102.259964 295.129974,101.878250 
	C299.999817,101.211327 301.385498,99.011032 299.866394,94.184700 
z"/>
<path fill="#F8E9EB" opacity="1.000000" stroke="none" 
	d="
M323.050049,176.201797 
	C320.788940,177.111343 318.853363,177.837021 316.917755,178.562698 
	C319.616425,175.089493 324.936829,173.240570 322.774689,167.920044 
	C320.617767,162.612305 315.375702,165.268875 311.230225,164.998947 
	C314.982941,161.733826 322.202942,160.635406 326.021484,162.646973 
	C329.304413,164.376389 330.298340,168.182449 327.979736,171.595352 
	C326.809845,173.317383 324.932831,174.559052 323.050049,176.201797 
z"/>
<path fill="#F8E9EB" opacity="1.000000" stroke="none" 
	d="
M180.490463,254.334793 
	C177.027664,256.544647 173.983322,258.945557 170.523758,260.213379 
	C168.748215,260.864044 166.231247,259.491516 164.049347,259.033295 
	C164.081467,258.517761 164.113571,258.002228 164.145691,257.486694 
	C170.028397,255.471451 175.911087,253.456223 182.267349,251.278778 
	C181.701523,252.305817 181.219238,253.181198 180.490463,254.334793 
z"/>
<path fill="#FCF4F5" opacity="1.000000" stroke="none" 
	d="
M378.117462,203.784943 
	C375.192017,208.564621 373.421783,208.761642 366.316895,205.013794 
	C365.965027,204.968460 365.867737,204.872238 365.755188,204.619888 
	C365.528046,204.042145 365.300812,203.909088 364.960876,203.968353 
	C364.960876,203.968353 364.995239,203.996155 365.078247,203.654236 
	C365.260254,202.364227 365.359222,201.416138 365.458191,200.468048 
	C369.682373,200.558365 373.906586,200.648666 378.470093,201.113251 
	C378.578766,202.253357 378.348114,203.019150 378.117462,203.784943 
z"/>
<path fill="#F8E9EB" opacity="1.000000" stroke="none" 
	d="
M177.773224,233.598221 
	C180.646133,233.974564 183.396698,234.015610 185.535980,235.179871 
	C186.464508,235.685196 186.134903,238.502274 186.376740,240.269348 
	C184.967484,240.118271 183.450272,240.248871 182.171051,239.758560 
	C179.340256,238.673538 176.629120,237.276413 173.355606,235.770309 
	C174.561249,235.159134 175.982071,234.438904 177.773224,233.598221 
z"/>
<path fill="#EFCDD1" opacity="1.000000" stroke="none" 
	d="
M293.334167,127.667068 
	C292.422546,128.869736 291.361267,129.731277 289.343079,131.369659 
	C289.343079,126.992455 289.343079,124.320793 289.343079,120.015030 
	C291.052887,123.269119 292.118683,125.297531 293.334167,127.667068 
z"/>
<path fill="#D06975" opacity="1.000000" stroke="none" 
	d="
M378.394012,204.023346 
	C378.348114,203.019150 378.578766,202.253357 378.919556,201.201309 
	C379.909027,200.743225 380.788300,200.571381 381.820435,200.662537 
	C382.017090,202.113846 382.060974,203.302124 382.104828,204.490417 
	C380.960083,204.414185 379.815308,204.337952 378.394012,204.023346 
z"/>
<path fill="#CB5966" opacity="1.000000" stroke="none" 
	d="
M386.500061,216.775177 
	C386.308044,215.111252 386.334778,213.603439 386.606995,212.141357 
	C386.637299,211.978638 388.701996,211.914612 388.743591,212.078659 
	C389.061584,213.332336 389.111664,214.653992 389.351868,216.289017 
	C388.569427,216.730606 387.680145,216.837662 386.500061,216.775177 
z"/>
<path fill="#D06975" opacity="1.000000" stroke="none" 
	d="
M365.138550,200.311859 
	C365.359222,201.416138 365.260254,202.364227 365.095398,203.668213 
	C364.411438,204.308258 363.793365,204.592407 363.175262,204.876556 
	C362.813812,203.633575 362.452393,202.390594 362.121521,200.816895 
	C363.041046,200.376007 363.929962,200.265839 365.138550,200.311859 
z"/>
<path fill="#D06975" opacity="1.000000" stroke="none" 
	d="
M386.913330,202.751099 
	C386.590363,203.165970 386.183075,203.365967 385.775787,203.565948 
	C385.739532,203.131897 385.703247,202.697830 385.883728,202.134796 
	C386.420837,202.076157 386.663696,202.252960 386.913330,202.751099 
z"/>
<path fill="#FEFEFE" opacity="1.000000" stroke="none" 
	d="
M296.125000,167.129761 
	C295.366516,167.602448 294.374237,167.815765 293.381989,168.029083 
	C293.324921,167.841293 293.267822,167.653488 293.210754,167.465683 
	C293.748718,167.183853 294.286682,166.902008 295.119141,166.490540 
	C295.572845,166.530731 295.732025,166.700562 296.125000,167.129761 
z"/>
<path fill="#FEFEFE" opacity="1.000000" stroke="none" 
	d="
M312.267639,107.198700 
	C312.575897,107.196381 312.654419,107.414948 312.732971,107.633514 
	C312.501312,107.562210 312.269623,107.490898 312.267639,107.198700 
z"/>
<path fill="#F6F6F6" opacity="1.000000" stroke="none" 
	d="
M85.981232,492.216034 
	C83.196198,492.216034 80.892342,492.216034 78.312103,492.216034 
	C78.312103,487.793365 78.312103,483.720795 78.312103,479.072021 
	C83.447037,479.072021 88.655373,478.458649 93.585548,479.362488 
	C95.668442,479.744354 98.168938,483.103699 98.685936,485.497162 
	C99.399658,488.801331 97.211441,491.597290 93.444336,492.071930 
	C91.147438,492.361389 88.791710,492.183868 85.981232,492.216034 
z"/>
<path fill="#F0F0F0" opacity="1.000000" stroke="none" 
	d="
M90.510895,471.045349 
	C86.273750,471.048279 82.484619,471.048279 78.353485,471.048279 
	C78.353485,466.913483 78.353485,463.029816 78.353485,458.559998 
	C82.802498,458.559998 87.482239,457.971283 91.879883,458.829010 
	C93.834702,459.210297 96.225906,462.321167 96.638321,464.526123 
	C97.325882,468.202179 95.042770,470.760956 90.510895,471.045349 
z"/>
<path fill="#F0F0F0" opacity="1.000000" stroke="none" 
	d="
M416.946472,463.368134 
	C419.012756,469.323303 420.971893,474.924286 423.041046,480.839783 
	C418.172516,480.839783 413.768616,480.839783 408.742828,480.839783 
	C411.154694,474.500732 413.431549,468.511932 415.727692,462.530518 
	C415.758301,462.450745 416.078705,462.387787 416.185089,462.450562 
	C416.429077,462.594421 416.624298,462.820984 416.946472,463.368134 
z"/>
<path fill="#F0F0F0" opacity="1.000000" stroke="none" 
	d="
M147.731750,480.335999 
	C143.345337,480.749969 139.056259,480.749969 134.010147,480.749969 
	C136.319672,474.399017 138.566162,468.221405 141.233078,460.887695 
	C143.732895,468.101532 145.780975,474.011780 147.731750,480.335999 
z"/>
<path fill="#F4F4F4" opacity="1.000000" stroke="none" 
	d="
M320.446808,541.977356 
	C320.446808,539.048767 320.446808,536.595520 320.446808,533.708679 
	C324.658417,533.708679 328.442932,533.468506 332.182526,533.775513 
	C336.002838,534.089172 338.732483,537.849243 338.599487,541.930237 
	C338.458008,546.272400 335.805023,549.215027 331.620850,549.386169 
	C328.168915,549.527405 324.706604,549.415100 320.446808,549.415100 
	C320.446808,546.898499 320.446808,544.675598 320.446808,541.977356 
z"/>
<path fill="#D06975" opacity="1.000000" stroke="none" 
	d="
M365.030029,204.159210 
	C365.300812,203.909088 365.528046,204.042145 365.706177,204.572113 
	C365.488770,204.724777 365.265289,204.582565 365.030029,204.159210 
z"/>
</svg>